<svg viewBox="0 0 120 36">
   <title>Wycliffe</title>
   <path id="wycliffe" d="M40.36,26.95l-0.4-0.5c-1.19,1.19-1.98,1.59-3.07,1.59c-1.39,0-3.97-1.19-3.97-4.86 c0-2.98,1.59-4.17,2.88-4.17c0.99,0,1.88,0.4,2.88,1.19c0.2,0.2,0.4,0.2,0.5,0.2c0.4,0,0.79-0.6,0.99-1.19c0-0.2-0.1-0.5-0.4-0.69 c-0.5-0.5-1.69-0.69-2.38-0.69l0,0c-0.79,0-2.48,0.4-4.07,1.59c-1.69,1.29-2.58,3.07-2.58,5.16c0,2.78,1.98,5.36,5.26,5.36 C37.49,29.73,39.17,28.54,40.36,26.95z M48.79,14.66c0.79,0,1.39-0.6,1.39-1.39c0-0.79-0.6-1.39-1.39-1.39l0,0 c-0.69,0-1.39,0.6-1.39,1.39C47.4,14.06,48,14.66,48.79,14.66z M73.88,27.25l-0.4-0.5c-0.99,0.99-1.88,1.29-2.88,1.29 c-1.88,0-4.07-1.39-3.97-5.16c3.07-0.1,6.35-0.4,6.74-0.5c0.5-0.1,0.6-0.2,0.6-0.79c0-1.88-1.69-3.77-3.97-3.77l0,0 	c-1.29,0-2.78,0.69-3.77,1.88c-1.19,1.29-1.79,2.88-1.79,4.66c0,2.88,1.88,5.45,5.16,5.45C70.61,29.73,72.4,29.24,73.88,27.25z 	 M69.52,18.62L69.52,18.62c1.59,0,2.38,1.39,2.38,2.78c0,0.4-0.1,0.5-0.6,0.5c-1.39,0-2.98,0.1-4.36,0.1 C67.14,19.81,68.33,18.62,69.52,18.62z M41.65,14.26v12.5c0,1.69-0.2,1.98-1.79,2.18v0.4h5.75h18.84v-0.5 c-2.18-0.2-2.38-0.5-2.38-2.18v-7.64h2.78c0.4-0.2,0.5-0.69,0.2-1.09h-2.98c0,0,0-2.28,0-2.88c0-0.99,0.1-2.78,1.79-2.78 c0.79,0,0.79,0.4,1.69,0.4c0.6,0,0.99-0.5,0.99-0.99c0-0.99-0.69-0.99-1.19-0.99c-0.4,0-1.79,0.4-3.17,1.69 	C60.5,13.96,60,16.44,60,17.93h-0.99h-0.2h-2.78c0,0,0-2.18,0-2.88c0-0.99,0.1-2.78,1.79-2.78c0.79,0,0.79,0.4,1.69,0.4 c0.6,0,0.99-0.5,0.99-0.99c0-0.99-0.69-0.99-1.19-0.99c-0.4,0-1.79,0.4-3.17,1.69c-1.69,1.59-2.18,4.07-2.18,5.55h-1.39l-0.69,0.69 	l0.1,0.4h1.79v7.64c0,1.69-0.2,1.88-1.69,2.18c-0.1,0-0.4,0-0.5,0c-1.69-0.1-1.79-0.5-1.79-2.18v-9.02 	c-1.19,0.5-2.48,0.79-3.67,1.09v0.5c1.39,0.2,1.59,0.4,1.59,1.98v5.45c0,1.69-0.2,1.98-1.79,2.18c-0.1,0-0.2,0-0.4,0 	c-1.59-0.1-1.79-0.5-1.79-2.18V10.79c-0.99,0.4-2.58,0.69-3.77,0.99v0.5C41.55,12.47,41.65,12.57,41.65,14.26z M55.93,19.12h2.28 	h0.5H60v7.64c0,1.69-0.4,2.18-1.88,2.18c-1.59,0-1.98-0.5-1.98-2.18v-7.64H55.93z M26.97,28.34c1.79-4.17,2.78-6.35,3.47-7.74 c0.69-1.39,0.79-1.69,2.28-1.88v-0.5h-4.76v0.5c1.39,0.2,1.69,0.5,1.29,1.69c-0.4,1.19-1.69,4.66-2.38,6.15l-2.48-6.45 c-0.4-1.09-0.1-1.29,1.09-1.39v-0.5h-4.96c0.4-1.09,0.6-1.79,0.79-2.38c0.79-2.28,1.09-2.48,2.78-2.78v-0.6h-5.75v0.5 	c1.88,0.2,2.28,0.6,1.88,2.28c-0.4,1.88-1.79,7.14-2.98,10.51h-0.1c-1.59-4.36-2.98-8.73-4.56-12.99H11.9	c-1.19,4.26-2.58,8.73-4.07,12.99l0,0c-1.09-3.67-2.08-7.34-3.07-10.81c-0.4-1.39-0.1-1.69,1.69-1.88v-0.6H0v0.5 	c1.39,0.2,1.88,0.5,2.48,2.58c1.39,4.76,2.88,9.42,4.17,14.18h0.69c1.29-4.26,2.78-8.43,4.26-12.99h0.1 c1.19,3.17,3.07,8.73,4.56,12.99h0.69c1.39-4.76,2.58-8.53,3.47-11.11c1.19,0.2,1.39,0.6,1.98,1.88c0.69,1.79,1.98,4.96,2.98,7.93 	c0.1,0.4,0.1,0.69,0,1.09s-0.4,0.99-0.79,1.88c-0.5,0.99-0.99,1.59-1.88,1.98c-0.5,0.2-0.69,0.5-0.79,0.79 	c-0.1,0.6,0.5,1.39,1.19,1.39c0.4,0.1,0.69,0,0.99-0.5C24.59,34.09,25.19,32.51,26.97,28.34z M74.88,18.52 	c0.99,0,1.69-0.69,1.69-1.69s-0.69-1.69-1.69-1.69c-0.99,0-1.69,0.69-1.69,1.69S73.88,18.52,74.88,18.52z M74.88,15.45 	c0.69,0,1.39,0.6,1.39,1.39c0,0.79-0.6,1.39-1.39,1.39c-0.69,0-1.39-0.6-1.39-1.39C73.59,16.05,74.18,15.45,74.88,15.45z M74.97,17.73c-0.2,0-0.2,0-0.2-0.2v-0.5h0.1c0.1,0,0.1,0,0.1,0.1c0,0.1,0.2,0.4,0.2,0.5c0.1,0.2,0.2,0.2,0.5,0.2h0.1v-0.1l0,0 	l-0.1-0.1c-0.1-0.1-0.1-0.1-0.2-0.2c-0.1-0.1-0.2-0.4-0.2-0.4c0.2-0.1,0.4-0.2,0.4-0.5c0-0.4-0.4-0.5-0.6-0.5h-0.79v0.1	c0.2,0,0.2,0,0.2,0.2v1.09c0,0.2,0,0.2-0.2,0.2v0.1H74.97L74.97,17.73L74.97,17.73z M74.58,16.14c0-0.1,0-0.1,0.2-0.1 	c0.1,0,0.4,0.1,0.4,0.4c0,0.1,0,0.2-0.1,0.4c0,0-0.1,0.1-0.2,0.1h-0.1L74.58,16.14L74.58,16.14z"></path>
   <path id="mark" d="M92.43,27.45c0.5-0.79,6.74-7.24,6.74-7.24l4.07-3.97l3.67-2.98l-0.2-0.1l6.15-4.96 c2.18-1.59,7.24-4.76,7.14-4.96c-0.2-0.2-0.1-0.1-0.6-0.1c-0.6,0.1-1.39,0.4-1.79,0.5l0,0l-0.5-0.6l-1.79,0.5c0,0,0.4-0.4,0.4-0.79 c0.1-0.5-0.5-0.4-0.4-0.6c0.1-0.5-1.29-0.1-1.29-0.1s0.6-0.69,0-0.79c-0.4-0.1,0-0.6-2.18,0.69c-0.4,0.2-1.88,1.19-2.18,1.29 	c-0.5,0.2-3.57,2.98-4.07,2.78c-0.1-0.1-1.79,1.59-1.79,1.59l-4.36,3.57l-6.94,5.95c0,0-2.48,2.28-4.07,3.67 	c-0.5,0.5-4.56,4.76-4.56,4.76l-3.07,3.67c0,0-2.18,2.48-1.88,3.47c0.2,0.99,0.99,1.29,0.99,1.29l1.39,0.2l2.28,0.6 c0,0,4.07,0.6,3.97-0.5C87.87,33,92.03,28.24,92.43,27.45z M80.23,10.39c2.38,5.85,0.5,10.31,2.28,10.81 c0.79,0.2,3.17-1.09,3.37-1.59c0-0.5,2.28-2.28,2.88-2.78c0.6-0.4,0.69-0.99,0.5-1.79c-1.59-4.07-3.07-8.93-4.17-10.31l-0.1,0.4 c0,0-2.18-3.57-3.47-4.96c-0.69-0.6-1.19,0.5-1.19,0.5l-1.19-0.4l-0.79,0.5l-1.19-0.1l-0.79,1.19c0,0,1.59,2.58,1.98,3.77 C79.14,7.42,79.73,9.3,80.23,10.39z M89.45,9.8c0.5,0.79,1.19,2.18,2.28,2.98c0.6,0.5,2.58-1.69,2.88-1.88 c0.4-0.4,2.58-0.99,3.07-1.39c0.5-0.4,0.2-1.19-0.1-1.98C97.19,6.72,96,4.94,95.8,3.75c-0.4-1.09-1.88-0.79-1.98-0.5 	c-0.2,0.3-1.59,0.4-1.59,0.4l-1.19,1.09l-2.48,1.09v0.2C88.66,6.03,89.26,9.6,89.45,9.8z"></path>
 </svg>
